<svg width="388" height="504" viewBox="0 0 388 504" fill="none" xmlns="http://www.w3.org/2000/svg">
<path d="M116.236 132.315V130.643L0 53.9167V310.034C0 230.561 47.8194 162.29 116.236 132.315Z" fill="#EED6C7"/>
<path d="M116.236 53.9167H0.00585938L116.236 130.643V53.9167Z" fill="#5D8144"/>
<path d="M193.972 181.963L117.739 131.635C117.234 131.85 116.741 132.094 116.235 132.315V208.28C137.796 191.783 164.728 181.963 193.972 181.963Z" fill="#F18D6F"/>
<path d="M116.236 208.28V132.315C47.8194 162.284 0 230.555 0 310.034H65.902C65.902 268.55 85.6453 231.688 116.23 208.286L116.236 208.28Z" fill="#F9C197"/>
<path d="M193.972 116.062C166.906 116.062 141.141 121.619 117.739 131.636L193.972 181.958V116.062Z" fill="#5D8144"/>
<path d="M116.235 208.28V310.028H193.972V181.963C164.728 181.963 137.79 191.783 116.235 208.28Z" fill="#D6826B"/>
<path d="M116.236 208.28C85.6515 231.682 65.9082 268.544 65.9082 310.028H116.236V208.28Z" fill="#F18D6F"/>
<path d="M271.708 208.28C250.153 191.789 223.221 181.963 193.983 181.963L271.708 233.273L311.758 259.711C303.019 239.283 289.123 221.607 271.708 208.28Z" fill="#4F3C35"/>
<path d="M271.708 53.9167H116.235V130.643L117.739 131.636C141.141 121.619 166.906 116.062 193.972 116.062V181.958L193.983 181.969C223.221 181.969 250.153 191.795 271.708 208.286C289.123 221.607 303.024 239.289 311.758 259.717L387.938 310.005V53.9226H271.702L271.708 53.9167Z" fill="#90AE7D"/>
<path d="M311.764 259.711L271.714 233.273L193.989 181.963H193.978V310.028H322.042C322.042 292.166 318.372 275.158 311.764 259.711Z" fill="#F9C197"/>
<path d="M193.972 438.098V504C301.096 504 387.944 417.158 387.944 310.028H322.042C322.042 380.755 264.705 438.092 193.977 438.092L193.972 438.098Z" fill="#F9C197"/>
<path d="M193.972 310.028V438.092C264.699 438.092 322.036 380.755 322.036 310.028H193.972Z" fill="#F18D6F"/>
<path d="M65.9078 310.028H0.00585938C0.00585938 366.941 24.5166 418.128 63.5561 453.608C70.443 459.868 77.7887 465.64 85.5292 470.872C116.486 491.788 153.806 504 193.978 504V438.098C123.251 438.098 65.9136 380.761 65.9136 310.034L65.9078 310.028Z" fill="#F18E6A"/>
<path d="M116.236 310.028H65.9082C65.9082 380.755 123.245 438.092 193.973 438.092V310.028H116.236Z" fill="#C06143"/>
<g style="mix-blend-mode:multiply">
<path d="M116.242 53.8992H0.00585938V53.9166H116.242V53.8992Z" fill="#EED09B"/>
</g>
<g style="mix-blend-mode:multiply">
<path d="M387.945 53.8992H271.709V53.9166H387.945V53.8992Z" fill="#EED09B"/>
</g>
<path d="M322.042 310.028H387.944V309.999L311.764 259.711C318.372 275.158 322.042 292.166 322.042 310.034V310.028Z" fill="#EED6C7"/>
<path d="M336.106 0H47.8135V28.3316H336.106V0Z" fill="#4F3C35"/>
</svg>
