<svg width="145" height="84" viewBox="0 0 145 84" fill="none" xmlns="http://www.w3.org/2000/svg">
<path d="M19.4152 22.2053V21.9287L0.198853 9.23877V51.5986C0.198853 38.4545 8.10445 27.1629 19.4152 22.2053Z" fill="#EED6C7"/>
<path d="M19.4152 9.23877H0.199829L19.4152 21.9287V9.23877Z" fill="#5D8144"/>
<path d="M32.2667 30.4167L19.6638 22.0928C19.5803 22.1283 19.4987 22.1686 19.4152 22.2051V34.7692C22.9796 32.0407 27.4321 30.4167 32.2667 30.4167Z" fill="#F18D6F"/>
<path d="M19.4152 34.7692V22.2051C8.10445 27.1618 0.198853 38.4533 0.198853 51.5984H11.0939C11.0939 44.7373 14.3579 38.6406 19.4142 34.7701L19.4152 34.7692Z" fill="#F9C197"/>
<path d="M32.2667 19.5171C27.7921 19.5171 23.5326 20.4362 19.6638 22.0929L32.2667 30.4158V19.5171Z" fill="#5D8144"/>
<path d="M19.4152 34.7691V51.5974H32.2667V30.4165C27.4321 30.4165 22.9787 32.0406 19.4152 34.7691Z" fill="#D6826B"/>
<path d="M19.4152 34.7695C14.3589 38.64 11.0948 44.7367 11.0948 51.5978H19.4152V34.7695Z" fill="#F18D6F"/>
<path d="M45.1182 34.7691C41.5546 32.0415 37.1022 30.4165 32.2686 30.4165L45.1182 38.9027L51.7393 43.2754C50.2945 39.8967 47.9972 36.9732 45.1182 34.7691Z" fill="#4F3C35"/>
<path d="M45.1182 9.23877H19.4152V21.9287L19.6638 22.0929C23.5326 20.4362 27.7921 19.5171 32.2667 19.5171V30.4158L32.2686 30.4177C37.1022 30.4177 41.5547 32.0428 45.1182 34.7703C47.9972 36.9735 50.2955 39.898 51.7393 43.2767L64.3336 51.5938V9.23973H45.1172L45.1182 9.23877Z" fill="#90AE7D"/>
<path d="M51.7403 43.2754L45.1192 38.9027L32.2696 30.4165H32.2677V51.5974H53.4395C53.4395 48.6432 52.8328 45.8301 51.7403 43.2754Z" fill="#F9C197"/>
<path d="M32.2667 72.7795V83.6792C49.9768 83.6792 64.3346 69.3163 64.3346 51.5977H53.4395C53.4395 63.2955 43.9605 72.7785 32.2677 72.7785L32.2667 72.7795Z" fill="#F9C197"/>
<path d="M32.2667 51.5977V72.7785C43.9595 72.7785 53.4386 63.2955 53.4386 51.5977H32.2667Z" fill="#F18D6F"/>
<path d="M11.0949 51.5977H0.199829C0.199829 61.0106 4.25199 69.4767 10.7061 75.3448C11.8446 76.3801 13.059 77.3347 14.3387 78.2001C19.4565 81.6595 25.6264 83.6792 32.2677 83.6792V72.7795C20.5749 72.7795 11.0958 63.2964 11.0958 51.5986L11.0949 51.5977Z" fill="#F18E6A"/>
<path d="M19.4152 51.5977H11.0948C11.0948 63.2955 20.5739 72.7785 32.2667 72.7785V51.5977H19.4152Z" fill="#C06143"/>
<path d="M78.0616 38.803C79.1915 39.9238 80.5346 40.8093 82.0533 41.4375C83.5711 42.0665 85.2415 42.3844 87.0184 42.3844C88.2232 42.3844 89.3099 42.2624 90.2488 42.0223C91.2011 41.7774 92.0843 41.3769 92.8744 40.8305C93.6616 40.2859 94.3826 39.5771 95.0162 38.7253C95.6411 37.883 96.2335 36.8496 96.7749 35.6529L97.0293 35.0911H96.0568L95.9502 35.3235C95.0286 37.3394 93.9227 38.8347 92.6613 39.7673C91.4181 40.6883 89.8773 41.1551 88.085 41.1551C86.7333 41.1551 85.445 40.8401 84.2555 40.2168C83.0536 39.5896 81.9909 38.7262 81.0952 37.6486C80.1966 36.5672 79.4738 35.2783 78.9486 33.8195C78.4226 32.3597 78.1557 30.7798 78.1557 29.1221C78.1557 27.6354 78.3573 26.2457 78.7538 24.9923C79.1483 23.7448 79.6984 22.647 80.3906 21.7298C81.0741 20.8242 81.8891 20.1106 82.8126 19.6073C83.7256 19.1089 84.7365 18.8553 85.8194 18.8553C86.6104 18.8553 87.2958 19.0167 87.8546 19.3355C88.4363 19.6688 88.9518 20.0846 89.3877 20.5725C89.8322 21.07 90.2181 21.6175 90.5339 22.1966C90.8671 22.8093 91.179 23.3769 91.467 23.8984C91.7666 24.4401 92.0709 24.9021 92.3723 25.2728C92.7381 25.7242 93.1672 25.9537 93.6472 25.9537C94.0312 25.9537 94.3979 25.8817 94.7349 25.7386C95.0498 25.6051 95.453 25.3698 95.9695 25.0173L96.2239 24.8444L96.1202 24.5554C95.6613 23.2694 94.9739 22.1044 94.084 21.1008C93.7115 20.659 93.268 20.2268 92.7659 19.8167C92.2591 19.4018 91.6735 19.0263 91.0274 18.7017C90.3803 18.378 89.6459 18.1158 88.8443 17.9208C88.037 17.7259 87.1317 17.627 86.1525 17.627C84.5474 17.627 83.0133 17.9525 81.5925 18.595C80.1746 19.2347 78.9218 20.1288 77.8686 21.2506C76.8194 22.3675 75.9755 23.6862 75.3592 25.1691C74.7429 26.6558 74.4299 28.2654 74.4299 29.9548C74.4299 31.6441 74.7544 33.3345 75.3938 34.8423C76.0331 36.3511 76.9307 37.6832 78.0616 38.8021V38.803Z" fill="#4F3C35"/>
<path d="M102.842 42.0511C104.14 42.0511 105.329 41.5555 106.378 40.5778C107.011 39.9872 107.567 39.2534 108.041 38.3862V40.2532C108.041 41.8167 108.999 42.0501 109.572 42.0501H112.967V41.0878H112.57C112.097 41.0878 111.754 40.9735 111.518 40.7372C111.283 40.5019 111.169 40.1687 111.169 39.7182V29.3881C111.169 27.9369 110.633 26.7575 109.575 25.8816C108.541 25.0249 107.161 24.5908 105.475 24.5908C104.757 24.5908 104.057 24.6792 103.391 24.854C102.727 25.0288 102.134 25.2669 101.627 25.5618C101.117 25.8586 100.683 26.1966 100.337 26.5673C99.963 26.9678 99.7335 27.4 99.6538 27.8543L99.6154 28.0704L99.7777 28.2173C100.56 28.9271 101.434 29.2863 102.376 29.2863C102.846 29.2863 103.207 29.1537 103.449 28.8944C103.651 28.6783 103.814 28.4094 103.931 28.0963C104.035 27.8168 104.128 27.521 104.211 27.2051C104.279 26.9381 104.379 26.6836 104.508 26.4463C104.621 26.237 104.781 26.065 104.994 25.921C105.194 25.7884 105.501 25.7212 105.907 25.7212C106.551 25.7212 107.049 25.9873 107.43 26.5337C107.829 27.109 108.035 27.9503 108.042 29.0663C107.839 29.7444 107.48 30.3197 106.975 30.7768C106.423 31.2753 105.786 31.7228 105.086 32.106C104.366 32.4979 103.599 32.8676 102.806 33.2047C101.979 33.5563 101.214 33.9539 100.533 34.3851C99.8286 34.8326 99.2382 35.3695 98.7783 35.9822C98.2954 36.6286 98.0497 37.4373 98.0497 38.3871C98.0497 39.5819 98.4788 40.5077 99.3255 41.1387C100.135 41.7438 101.318 42.0511 102.844 42.0511H102.842ZM108.041 31.3166V35.5914C107.53 37.1693 106.846 38.4476 106.01 39.3888C105.193 40.3089 104.32 40.7555 103.343 40.7555C102.715 40.7555 102.243 40.5826 101.895 40.2253C101.546 39.8671 101.376 39.3639 101.376 38.6868C101.376 38.0673 101.506 37.5141 101.76 37.0425C102.028 36.5479 102.38 36.0802 102.807 35.6519C103.245 35.2139 103.744 34.7971 104.288 34.4129C104.858 34.0105 105.422 33.5966 105.982 33.1711C106.55 32.7389 107.082 32.2866 107.564 31.8266C107.734 31.6652 107.894 31.4952 108.042 31.3166H108.041Z" fill="#4F3C35"/>
<path d="M114.398 39.2795C114.922 39.827 115.567 40.3264 116.316 40.7643C117.062 41.2013 117.887 41.5557 118.767 41.8179C119.655 42.083 120.539 42.2174 121.397 42.2174C122.255 42.2174 123.017 42.1051 123.731 41.8832C124.446 41.6604 125.08 41.3492 125.613 40.9574C126.157 40.5588 126.588 40.0786 126.892 39.5302C127.201 38.9732 127.358 38.3527 127.358 37.6872C127.358 36.8871 127.087 36.1467 126.552 35.4869C126.053 34.8722 125.426 34.2979 124.691 33.7802C123.976 33.2779 123.187 32.7775 122.344 32.2945C121.521 31.8219 120.753 31.335 120.061 30.8471C119.382 30.3698 118.806 29.8598 118.351 29.3306C117.934 28.8466 117.731 28.3203 117.731 27.7239C117.731 27.091 117.924 26.5819 118.32 26.1651C118.713 25.755 119.174 25.5553 119.731 25.5553C120.151 25.5553 120.515 25.635 120.81 25.7915C121.125 25.9606 121.405 26.1738 121.638 26.4273C121.885 26.6962 122.11 26.9949 122.307 27.3147C122.522 27.6682 122.749 27.9995 122.98 28.2991C123.224 28.6161 123.483 28.8812 123.751 29.0876C124.272 29.4939 124.995 29.5438 125.726 29.321C126.002 29.2375 126.353 29.0886 126.77 28.8802L127.167 28.6814L126.926 28.3088C126.464 27.5923 125.902 26.9373 125.248 26.3524C124.691 25.8885 123.985 25.4506 123.149 25.0501C122.287 24.6371 121.248 24.4277 120.063 24.4277C119.32 24.4277 118.611 24.5228 117.954 24.7091C117.293 24.8983 116.708 25.1701 116.218 25.5168C115.716 25.8722 115.319 26.3025 115.037 26.7932C114.748 27.2965 114.601 27.8449 114.601 28.425C114.601 29.3095 114.869 30.1134 115.397 30.8135C115.894 31.4733 116.517 32.0976 117.252 32.6709C117.972 33.2337 118.766 33.7716 119.61 34.2671C120.432 34.7493 121.2 35.2477 121.894 35.7462C122.575 36.235 123.151 36.7527 123.608 37.2819C124.024 37.7678 124.228 38.2941 124.228 38.8896C124.228 39.5312 123.999 40.044 123.53 40.457C123.044 40.8844 122.434 41.0918 121.661 41.0918C121.106 41.0918 120.634 40.9939 120.259 40.8027C119.867 40.601 119.523 40.3427 119.236 40.0344C118.931 39.7088 118.655 39.3525 118.414 38.9751C118.156 38.5698 117.902 38.1933 117.654 37.8427C117.39 37.4701 117.101 37.158 116.796 36.9131C116.199 36.4367 115.281 36.4137 114.554 36.6249C114.267 36.7085 113.931 36.8458 113.555 37.0341L113.272 37.1753L113.346 37.4836C113.496 38.1069 113.848 38.7119 114.395 39.2824L114.398 39.2795Z" fill="#4F3C35"/>
<path d="M130.703 41.1387C131.512 41.7438 132.696 42.0511 134.222 42.0511C135.519 42.0511 136.709 41.5555 137.757 40.5778C138.391 39.9872 138.947 39.2534 139.421 38.3862V40.2532C139.421 41.8167 140.379 42.0501 140.951 42.0501H144.347V41.0878H143.949C143.477 41.0878 143.133 40.9735 142.898 40.7372C142.663 40.5019 142.549 40.1687 142.549 39.7182V29.3881C142.549 27.9369 142.013 26.7575 140.955 25.8816C139.92 25.0249 138.541 24.5908 136.855 24.5908C136.137 24.5908 135.437 24.6792 134.771 24.854C134.106 25.0288 133.513 25.2669 133.006 25.5618C132.496 25.8586 132.062 26.1966 131.717 26.5673C131.342 26.9678 131.113 27.4 131.033 27.8543L130.995 28.0704L131.157 28.2173C131.94 28.9271 132.813 29.2863 133.756 29.2863C134.225 29.2863 134.586 29.1537 134.828 28.8944C135.031 28.6783 135.193 28.4094 135.31 28.0963C135.415 27.8168 135.508 27.521 135.59 27.2051C135.659 26.9381 135.758 26.6836 135.887 26.4463C136 26.237 136.161 26.065 136.374 25.921C136.574 25.7884 136.881 25.7212 137.287 25.7212C137.931 25.7212 138.428 25.9873 138.809 26.5337C139.209 27.109 139.414 27.9503 139.422 29.0663C139.218 29.7444 138.859 30.3197 138.354 30.7768C137.802 31.2753 137.166 31.7228 136.465 32.106C135.746 32.4979 134.979 32.8676 134.185 33.2047C133.358 33.5563 132.593 33.9539 131.913 34.3851C131.208 34.8326 130.618 35.3695 130.158 35.9822C129.675 36.6286 129.429 37.4373 129.429 38.3871C129.429 39.5819 129.858 40.5077 130.705 41.1387H130.703ZM139.421 31.3166V35.5914C138.909 37.1693 138.226 38.4476 137.39 39.3888C136.573 40.3089 135.7 40.7555 134.723 40.7555C134.095 40.7555 133.622 40.5826 133.275 40.2253C132.926 39.8671 132.756 39.3639 132.756 38.6868C132.756 38.0673 132.885 37.5141 133.14 37.0425C133.407 36.5479 133.76 36.0802 134.187 35.6519C134.625 35.2139 135.124 34.7971 135.667 34.4129C136.238 34.0105 136.802 33.5966 137.362 33.1711C137.929 32.7389 138.462 32.2866 138.944 31.8266C139.114 31.6652 139.273 31.4952 139.422 31.3166H139.421Z" fill="#4F3C35"/>
<path d="M94.3278 49.2388C93.2315 48.0863 91.9297 47.1595 90.457 46.4853C87.5578 45.1589 84.1124 45.1234 81.2334 46.4353C79.826 47.0759 78.579 47.9691 77.5268 49.0909C76.4766 50.2107 75.6375 51.5303 75.0337 53.0122C74.4279 54.498 74.1207 56.1067 74.1207 57.7951C74.1207 59.4835 74.4395 61.1344 75.0673 62.6317C75.6951 64.1261 76.563 65.4515 77.6468 66.5703C78.7316 67.6902 80.017 68.5882 81.4676 69.2393C82.9239 69.8924 84.4964 70.2237 86.1438 70.2237C87.7911 70.2237 89.3195 69.9039 90.7508 69.2729C92.1783 68.6448 93.4417 67.7757 94.5063 66.6885C95.57 65.6013 96.4158 64.3086 97.0215 62.8468C97.6273 61.3822 97.9345 59.7956 97.9345 58.1293C97.9345 56.463 97.6042 54.7775 96.9534 53.2571C96.3044 51.7435 95.4212 50.3922 94.3278 49.2407V49.2388ZM80.7111 65.3631C79.8423 64.2586 79.1406 62.9621 78.625 61.5109C78.1095 60.0616 77.8484 58.5317 77.8484 56.9614C77.8484 55.3912 78.0289 53.9726 78.3831 52.703C78.7354 51.441 79.2375 50.3509 79.8721 49.4616C80.5009 48.5828 81.2679 47.8942 82.154 47.414C83.0343 46.9376 84.0299 46.6956 85.1127 46.6956C86.3223 46.6956 87.4878 47.0193 88.5764 47.657C89.6804 48.3062 90.6615 49.1908 91.491 50.2866C92.3271 51.3901 92.9953 52.702 93.4782 54.1849C93.963 55.6716 94.2087 57.2678 94.2087 58.9274C94.2087 60.3949 94.0282 61.7644 93.674 63.0005C93.3226 64.2269 92.8215 65.3016 92.1831 66.1948C91.5534 67.0774 90.7998 67.7737 89.9434 68.2635C88.0858 69.3296 85.7473 69.2057 83.713 68.0158C82.586 67.3569 81.5751 66.4637 80.7111 65.3631Z" fill="#4F3C35"/>
<path d="M116.379 48.1754L116.174 48.0938C115.795 47.9421 115.331 47.8652 114.792 47.8652C114.527 47.8652 114.272 47.8835 114.034 47.919C113.772 47.9584 113.53 48.0333 113.337 48.1303C112.92 48.308 112.646 48.5759 112.52 48.9265C112.411 49.2242 112.37 49.545 112.397 49.8773C112.42 50.1789 112.48 50.4977 112.578 50.8252C112.659 51.0989 112.711 51.363 112.731 51.6099C112.747 51.825 112.72 52.0142 112.646 52.188C112.585 52.3283 112.432 52.455 112.213 52.5588C111.844 52.7076 111.407 52.7604 111.077 52.7163C110.997 52.7067 110.919 52.6951 110.879 52.6932C109.073 51.9537 106.736 51.9335 104.832 52.7095C103.89 53.0937 103.058 53.6248 102.36 54.2894C101.658 54.9569 101.102 55.7569 100.704 56.6684C100.307 57.5798 100.104 58.5642 100.104 59.5938C100.104 60.6233 100.323 61.699 100.755 62.6565C101.185 63.6112 101.786 64.4602 102.543 65.1795C103.294 65.8979 104.181 66.4741 105.179 66.8919C106.177 67.3107 107.248 67.5229 108.364 67.5229C109.134 67.5229 109.855 67.5825 110.509 67.6996C111.149 67.8149 111.706 67.9791 112.163 68.1866C112.601 68.3863 112.945 68.6187 113.185 68.8771C113.394 69.1028 113.496 69.3256 113.496 69.5571C113.496 69.9086 113.314 70.2044 112.937 70.4618C112.518 70.747 112 70.892 111.396 70.892C110.369 70.892 109.51 70.7412 108.843 70.4435C108.14 70.1295 107.496 69.7856 106.93 69.4216C106.339 69.0423 105.736 68.685 105.14 68.3575C104.495 68.0041 103.719 67.8254 102.834 67.8254C102.298 67.8254 101.782 67.9253 101.3 68.1222C100.824 68.3181 100.399 68.5842 100.036 68.9107C99.6645 69.2459 99.3697 69.6416 99.1605 70.0853C98.9473 70.5357 98.8389 71.0303 98.8389 71.5557C98.8389 74.0307 100.654 75.2859 104.233 75.2859C105.237 75.2859 106.261 74.9623 107.276 74.3255C108.203 73.7435 109.027 72.9435 109.733 71.9456C110.058 72.0282 110.402 72.1012 110.76 72.1646C111.7 72.3288 112.862 72.349 113.784 72.0887C114.25 71.9571 114.672 71.7737 115.039 71.5422C115.416 71.3031 115.719 71.0178 115.938 70.6961C116.172 70.3523 116.291 69.9681 116.291 69.5571C116.291 69.0874 116.131 68.6543 115.816 68.2711C115.53 67.9224 115.139 67.6103 114.651 67.3414C114.179 67.0821 113.605 66.8622 112.946 66.6893C112.723 66.6307 112.493 66.5788 112.253 66.5347C112.511 66.3916 112.758 66.2331 112.994 66.0631C113.621 65.6098 114.175 65.0729 114.642 64.4669C115.11 63.857 115.479 63.1684 115.735 62.4212C115.993 61.6721 116.124 60.8778 116.124 60.0586C116.124 58.5431 115.71 57.1466 114.892 55.9067C114.279 54.9771 113.511 54.1991 112.6 53.5835C112.745 53.5374 112.886 53.4846 113.018 53.426C113.521 53.209 114.005 52.9016 114.454 52.5107C114.901 52.1227 115.287 51.6944 115.603 51.2372C115.927 50.7695 116.163 50.2893 116.306 49.8091C116.458 49.3068 116.495 48.8304 116.417 48.3925L116.379 48.1745V48.1754ZM105.083 63.9511C104.532 63.2308 104.08 62.3914 103.741 61.457C103.403 60.5273 103.232 59.5525 103.232 58.5604C103.232 57.8055 103.337 57.0957 103.546 56.4503C103.752 55.8078 104.034 55.2479 104.384 54.785C104.724 54.3355 105.138 53.9811 105.616 53.7324C106.09 53.4856 106.6 53.3607 107.131 53.3607C107.853 53.3607 108.568 53.571 109.257 53.9869C109.965 54.4143 110.601 54.9924 111.145 55.7041C111.696 56.4244 112.147 57.2628 112.487 58.1973C112.825 59.128 112.996 60.1028 112.996 61.0949C112.996 61.8469 112.89 62.5509 112.682 63.1867C112.476 63.8196 112.192 64.3747 111.844 64.8366C111.5 65.29 111.085 65.6511 110.606 65.9104C109.492 66.5126 108.163 66.3896 106.969 65.6693C106.261 65.2419 105.625 64.6638 105.082 63.9521L105.083 63.9511ZM101.632 71.5912C101.632 70.8786 101.81 70.3119 102.177 69.8586C102.522 69.4313 102.945 69.2228 103.467 69.2228C103.853 69.2228 104.242 69.3074 104.624 69.4735C105.041 69.656 105.483 69.8788 105.934 70.1372L107.416 70.9871C107.805 71.2109 108.228 71.4164 108.677 71.6008C107.962 72.4565 107.261 73.101 106.588 73.5197C105.833 73.9894 105.03 74.2266 104.199 74.2266C103.436 74.2266 102.832 73.9874 102.352 73.4957C101.867 73.0021 101.632 72.3787 101.632 71.5912H101.632Z" fill="#4F3C35"/>
<path d="M134.606 68.5718C134.363 68.3375 134.245 68.0061 134.245 67.5586V57.3609C134.245 55.88 133.785 54.6747 132.877 53.7786C131.97 52.8844 130.75 52.4311 129.25 52.4311C128.379 52.4311 127.552 52.6703 126.792 53.1409C126.048 53.6019 125.38 54.2617 124.808 55.104C124.246 55.929 123.754 56.9355 123.346 58.0947C123.303 58.2176 123.26 58.3425 123.219 58.4683V52.4302H122.553L117.86 54.9916V56.0874L118.444 55.7801C119.117 55.4238 119.65 55.4142 119.917 55.6658C120.034 55.7762 120.093 55.9654 120.093 56.2276V67.5586C120.093 68.008 119.978 68.3413 119.743 68.5776C119.507 68.8138 119.163 68.9281 118.692 68.9281H118.294V69.8904H125.019V68.9281H124.622C124.149 68.9281 123.806 68.8138 123.57 68.5776C123.335 68.3423 123.221 68.009 123.221 67.5586L123.219 64.7234C123.351 63.0408 123.587 61.4926 123.925 60.1221C124.26 58.7602 124.685 57.5847 125.19 56.63C125.683 55.6946 126.254 54.9637 126.886 54.4547C127.495 53.964 128.138 53.7258 128.852 53.7258C129.567 53.7258 130.105 53.988 130.495 54.5277C130.91 55.0992 131.119 55.9395 131.119 57.0267V67.5576C131.119 68.0071 131.004 68.3403 130.769 68.5766C130.533 68.8119 130.19 68.9262 129.717 68.9262H129.32V69.8885H136.045V68.9262H135.647C135.194 68.9262 134.855 68.81 134.608 68.5708L134.606 68.5718Z" fill="#4F3C35"/>
<path d="M144.207 68.9271C143.735 68.9271 143.391 68.8128 143.156 68.5766C142.921 68.3413 142.807 68.008 142.807 67.5576V52.4292H142.141L137.448 54.9906V56.0864L138.032 55.7791C138.705 55.4228 139.238 55.4132 139.504 55.6648C139.622 55.7753 139.681 55.9645 139.681 56.2267V67.5576C139.681 68.0071 139.566 68.3403 139.331 68.5766C139.095 68.8128 138.751 68.9271 138.279 68.9271H137.882V69.8895H144.607V68.9271H144.209H144.207Z" fill="#4F3C35"/>
<path d="M139.062 46.8485C138.631 47.2797 138.413 47.8118 138.413 48.4293C138.413 49.0468 138.631 49.5808 139.062 50.0101C139.493 50.4414 140.024 50.6594 140.642 50.6594C141.26 50.6594 141.791 50.4404 142.222 50.0101C142.653 49.5789 142.872 49.0468 142.872 48.4293C142.872 47.8118 142.654 47.2806 142.222 46.8485C141.791 46.4172 141.26 46.1992 140.642 46.1992C140.024 46.1992 139.493 46.4182 139.062 46.8485Z" fill="#4F3C35"/>
<g style="mix-blend-mode:multiply">
<path d="M19.4161 9.23584H0.199829V9.23872H19.4161V9.23584Z" fill="#EED09B"/>
</g>
<g style="mix-blend-mode:multiply">
<path d="M64.3345 9.23584H45.1182V9.23872H64.3345V9.23584Z" fill="#EED09B"/>
</g>
<path d="M53.4394 51.5978H64.3345V51.593L51.7402 43.2759C52.8327 45.8306 53.4394 48.6436 53.4394 51.5988V51.5978Z" fill="#EED6C7"/>
<path d="M55.7646 0.321289H8.10352V5.00713H55.7646V0.321289Z" fill="#4F3C35"/>
</svg>
