<svg width="407" height="595" viewBox="0 0 407 595" fill="none" xmlns="http://www.w3.org/2000/svg">
<path d="M313.648 302.143C252.668 302.143 203.273 351.645 203.273 412.758C264.253 412.617 313.648 363.114 313.648 302.143Z" fill="#F9C197"/>
<path d="M203.298 575.701C305.087 575.701 387.597 493.003 387.597 391H19C19 493.011 101.517 575.701 203.298 575.701Z" fill="#D6826B"/>
<path d="M203.266 313.753C142.286 313.753 92.8913 264.25 92.8913 203.138C153.871 203.279 203.266 252.781 203.266 313.753Z" fill="#D6826B"/>
<path d="M203.266 412.617C142.286 412.617 92.8913 363.115 92.8913 302.002C153.871 302.143 203.266 351.645 203.266 412.617Z" fill="#5D8144"/>
<path d="M265.175 49.2676C230.974 49.2676 203.266 77.029 203.266 111.312C237.466 111.234 265.175 83.4722 265.175 49.2676Z" fill="#F9C197"/>
<path d="M203.266 111.234C169.065 111.234 141.356 83.4724 141.356 49.1895C175.557 49.2677 203.266 77.0292 203.266 111.234Z" fill="#5D8144"/>
<path d="M313.648 203.278C252.668 203.278 203.273 252.781 203.273 313.894C264.253 313.753 313.648 264.25 313.648 203.278Z" fill="#F18E6A"/>
<path d="M203.266 216.134C142.286 216.134 92.8913 166.631 92.8913 105.519C153.871 105.659 203.266 155.162 203.266 216.134Z" fill="#F9C197"/>
<path d="M313.648 105.659C252.668 105.659 203.273 155.162 203.273 216.274C264.253 216.133 313.648 166.631 313.648 105.659Z" fill="#F18E6A"/>
</svg>
